<svg xmlns="http://www.w3.org/2000/svg" width="1536" height="256" viewBox="0 0 1536 256"><rect x="0" y="0" width="256" height="256" fill="#fafafa" stroke="#000" stroke-width="4"/><circle cx="128" cy="128" r="18" fill="#000"/><rect x="256" y="0" width="256" height="256" fill="#fafafa" stroke="#000" stroke-width="4"/><circle cx="324" cy="68" r="18" fill="#000"/><circle cx="444" cy="188" r="18" fill="#000"/><rect x="512" y="0" width="256" height="256" fill="#fafafa" stroke="#000" stroke-width="4"/><circle cx="580" cy="68" r="18" fill="#000"/><circle cx="640" cy="128" r="18" fill="#000"/><circle cx="700" cy="188" r="18" fill="#000"/><rect x="768" y="0" width="256" height="256" fill="#fafafa" stroke="#000" stroke-width="4"/><circle cx="836" cy="68" r="18" fill="#000"/><circle cx="956" cy="68" r="18" fill="#000"/><circle cx="836" cy="188" r="18" fill="#000"/><circle cx="956" cy="188" r="18" fill="#000"/><rect x="1024" y="0" width="256" height="256" fill="#fafafa" stroke="#000" stroke-width="4"/><circle cx="1092" cy="68" r="18" fill="#000"/><circle cx="1212" cy="68" r="18" fill="#000"/><circle cx="1152" cy="128" r="18" fill="#000"/><circle cx="1092" cy="188" r="18" fill="#000"/><circle cx="1212" cy="188" r="18" fill="#000"/><rect x="1280" y="0" width="256" height="256" fill="#fafafa" stroke="#000" stroke-width="4"/><circle cx="1348" cy="68" r="18" fill="#000"/><circle cx="1348" cy="128" r="18" fill="#000"/><circle cx="1348" cy="188" r="18" fill="#000"/><circle cx="1468" cy="68" r="18" fill="#000"/><circle cx="1468" cy="128" r="18" fill="#000"/><circle cx="1468" cy="188" r="18" fill="#000"/></svg>