<svg xmlns="http://www.w3.org/2000/svg" width="2048" height="1280" viewBox="0 0 2048 1280"><style>text{font-family:sans-serif;font-weight:900;text-anchor:middle;dominant-baseline:central;fill:#fff;stroke:#000;stroke-width:6;paint-order:stroke;}</style><rect x="0" y="0" width="256" height="256" fill="#52c93f" stroke="#000" stroke-width="4"/><text x="128" y="128" font-size="110">0</text><rect x="256" y="0" width="256" height="256" fill="#52c93f" stroke="#000" stroke-width="4"/><text x="384" y="128" font-size="110">1</text><rect x="512" y="0" width="256" height="256" fill="#52c93f" stroke="#000" stroke-width="4"/><text x="640" y="128" font-size="110">2</text><rect x="768" y="0" width="256" height="256" fill="#52c93f" stroke="#000" stroke-width="4"/><text x="896" y="128" font-size="110">3</text><rect x="1024" y="0" width="256" height="256" fill="#52c93f" stroke="#000" stroke-width="4"/><text x="1152" y="128" font-size="110">4</text><rect x="1280" y="0" width="256" height="256" fill="#52c93f" stroke="#000" stroke-width="4"/><text x="1408" y="128" font-size="110">5</text><rect x="1536" y="0" width="256" height="256" fill="#52c93f" stroke="#000" stroke-width="4"/><text x="1664" y="128" font-size="110">6</text><rect x="1792" y="0" width="256" height="256" fill="#52c93f" stroke="#000" stroke-width="4"/><text x="1920" y="128" font-size="110">7</text><rect x="0" y="256" width="256" height="256" fill="#52c93f" stroke="#000" stroke-width="4"/><text x="128" y="384" font-size="110">8</text><rect x="256" y="256" width="256" height="256" fill="#52c93f" stroke="#000" stroke-width="4"/><text x="384" y="384" font-size="110">9</text><rect x="512" y="256" width="256" height="256" fill="#3fa3e6" stroke="#000" stroke-width="4"/><text x="640" y="384" font-size="110">10</text><rect x="768" y="256" width="256" height="256" fill="#3fa3e6" stroke="#000" stroke-width="4"/><text x="896" y="384" font-size="110">11</text><rect x="1024" y="256" width="256" height="256" fill="#3fa3e6" stroke="#000" stroke-width="4"/><text x="1152" y="384" font-size="110">12</text><rect x="1280" y="256" width="256" height="256" fill="#3fa3e6" stroke="#000" stroke-width="4"/><text x="1408" y="384" font-size="110">13</text><rect x="1536" y="256" width="256" height="256" fill="#3fa3e6" stroke="#000" stroke-width="4"/><text x="1664" y="384" font-size="110">14</text><rect x="1792" y="256" width="256" height="256" fill="#3fa3e6" stroke="#000" stroke-width="4"/><text x="1920" y="384" font-size="110">15</text><rect x="0" y="512" width="256" height="256" fill="#3fa3e6" stroke="#000" stroke-width="4"/><text x="128" y="640" font-size="110">16</text><rect x="256" y="512" width="256" height="256" fill="#3fa3e6" stroke="#000" stroke-width="4"/><text x="384" y="640" font-size="110">17</text><rect x="512" y="512" width="256" height="256" fill="#3fa3e6" stroke="#000" stroke-width="4"/><text x="640" y="640" font-size="110">18</text><rect x="768" y="512" width="256" height="256" fill="#3fa3e6" stroke="#000" stroke-width="4"/><text x="896" y="640" font-size="110">19</text><rect x="1024" y="512" width="256" height="256" fill="#e64554" stroke="#000" stroke-width="4"/><text x="1152" y="640" font-size="110">20</text><rect x="1280" y="512" width="256" height="256" fill="#e64554" stroke="#000" stroke-width="4"/><text x="1408" y="640" font-size="110">21</text><rect x="1536" y="512" width="256" height="256" fill="#e64554" stroke="#000" stroke-width="4"/><text x="1664" y="640" font-size="110">22</text><rect x="1792" y="512" width="256" height="256" fill="#e64554" stroke="#000" stroke-width="4"/><text x="1920" y="640" font-size="110">23</text><rect x="0" y="768" width="256" height="256" fill="#e64554" stroke="#000" stroke-width="4"/><text x="128" y="896" font-size="110">24</text><rect x="256" y="768" width="256" height="256" fill="#e64554" stroke="#000" stroke-width="4"/><text x="384" y="896" font-size="110">25</text><rect x="512" y="768" width="256" height="256" fill="#e64554" stroke="#000" stroke-width="4"/><text x="640" y="896" font-size="110">26</text><rect x="768" y="768" width="256" height="256" fill="#e64554" stroke="#000" stroke-width="4"/><text x="896" y="896" font-size="110">27</text><rect x="1024" y="768" width="256" height="256" fill="#e64554" stroke="#000" stroke-width="4"/><text x="1152" y="896" font-size="110">28</text><rect x="1280" y="768" width="256" height="256" fill="#e64554" stroke="#000" stroke-width="4"/><text x="1408" y="896" font-size="110">29</text><rect x="1536" y="768" width="256" height="256" fill="#f29220" stroke="#000" stroke-width="4"/><text x="1664" y="896" font-size="110">30</text><rect x="1792" y="768" width="256" height="256" fill="#f29220" stroke="#000" stroke-width="4"/><text x="1920" y="896" font-size="110">31</text><rect x="0" y="1024" width="256" height="256" fill="#f29220" stroke="#000" stroke-width="4"/><text x="128" y="1152" font-size="110">32</text><rect x="256" y="1024" width="256" height="256" fill="#f29220" stroke="#000" stroke-width="4"/><text x="384" y="1152" font-size="110">33</text><rect x="512" y="1024" width="256" height="256" fill="#f29220" stroke="#000" stroke-width="4"/><text x="640" y="1152" font-size="110">34</text><rect x="768" y="1024" width="256" height="256" fill="#f29220" stroke="#000" stroke-width="4"/><text x="896" y="1152" font-size="110">35</text><rect x="1024" y="1024" width="256" height="256" fill="#f29220" stroke="#000" stroke-width="4"/><text x="1152" y="1152" font-size="110">36</text><rect x="1280" y="1024" width="256" height="256" fill="#f29220" stroke="#000" stroke-width="4"/><text x="1408" y="1152" font-size="110">37</text><rect x="1536" y="1024" width="256" height="256" fill="#f29220" stroke="#000" stroke-width="4"/><text x="1664" y="1152" font-size="110">38</text><rect x="1792" y="1024" width="256" height="256" fill="#f29220" stroke="#000" stroke-width="4"/><text x="1920" y="1152" font-size="110">39</text></svg>